<svg id="Layer_1" data-name="Layer 1" xmlns="http://www.w3.org/2000/svg" viewBox="0 0 225 132.15"><title>course-icon</title><path d="M326.07,128.69c9.68-4.43,20.07-6.7,30.17-9.84,26-8.07,52-15.94,78-23.9a12.49,12.49,0,0,1,7.75-.29q52,16.08,104.1,32c1.72.52,3.34,1.37,5,2.06v5c-6,4.66-13.55,6-20.35,9-2.57,1.11-3.38,2-2.88,5.26,1.94,12.71.53,25.56.86,38.35.07,2.68,0,5.11,2.39,7.2,1.91,1.68,2.37,4.38,1.88,7-1.65,8.65-5.15,16.65-8.88,25.89a171.26,171.26,0,0,1-8.89-25.22c-.61-2.42-.51-5.34,1.46-7.07,3.25-2.83,3.08-6.33,3-10-.3-10.64.44-21.28-.43-31.92-.35-4.28-1.69-4.32-5.28-2.9-23.59,9.38-47.3,18.46-70.92,27.77a11.39,11.39,0,0,1-9-.05q-50.52-19.77-101.1-39.38a21.66,21.66,0,0,1-6.83-3.88Zm115.57-4c-4.07-.19-6.42.31-6.78,3.62-.47,4.34,2.89,4.84,5.79,5.22,18.92,2.5,37.9,4.56,56.76,7.4,7.11,1.07,15-.49,21.18,5.39,1.47,1.4,4.93-.67,6.65-2.13,1.89-1.62-.53-3.27-1.57-4.49-3-3.59-7.13-5.31-11.74-5.89q-14.58-1.84-29.16-3.71C468.62,128.21,454.47,126.33,441.64,124.64Z" transform="translate(-326.07 -94.17)"/><path d="M506.08,176.09c0,2.66-.22,5.35,0,8,1,10.44-4.57,16.9-12.9,21.69-11.64,6.69-24.55,9.06-37.62,10.61a143.63,143.63,0,0,1-57.69-4.71c-8.36-2.43-16.26-5.9-22.3-12.55a16.31,16.31,0,0,1-4.55-11.26c0-8.16.1-16.32-.05-24.48-.06-3.11.31-4.16,3.78-2.77,19.24,7.73,38.59,15.19,57.86,22.84a15.39,15.39,0,0,0,12-.08c19.27-7.66,38.63-15.1,57.87-22.82,3.23-1.29,3.65-.33,3.56,2.55C506,167.42,506.08,171.76,506.08,176.09Z" transform="translate(-326.07 -94.17)"/></svg>