<svg xmlns="http://www.w3.org/2000/svg" width="77.611" height="73" viewBox="0 0 77.611 73"><defs><style>.a{fill:#efa500;}.b{fill:#7f961e;}.c,.e{fill:#008cff;}.d{fill:#e26003;}.e{font-size:39px;font-family:AdobeArabic-Bold, Adobe Arabic;font-weight:700;}</style></defs><g transform="translate(-194.4 86.6)"><g transform="translate(194.4 -86.6)"><g transform="translate(0)"><path class="a" d="M499.274,112.219a15.919,15.919,0,0,1,10.457-16.456c12.017-4.784,18.695,3.071,21.355,8.276a27.612,27.612,0,0,1,2.736,8.247h-6.3s-3.253-12.342-12.39-12.141c-7.807.172-10.744,9.386-10.6,12.208Z" transform="translate(-470.045 -76.973)"/><path class="b" d="M794.313,85.85s-.995-8.821,3.894-15.031c6.047-7.673,16.246-5.5,16.246-5.5v5.214a10.062,10.062,0,0,0-10.993,3.033c-3.358,3.98-2.842,12.285-2.842,12.285Z" transform="translate(-736.841 -50.527)"/><path class="c" d="M288.458,191.423s2.6-6.812,8.563-5.683a9.645,9.645,0,0,1,6.869,5.683h5.2s-3.31-9.271-12.447-9.7c-10.936-.517-13.538,9.749-13.538,9.749" transform="translate(-274.614 -156.033)"/><circle class="d" cx="4.774" cy="4.774" r="4.774" transform="translate(11.519 12.926)"/><circle class="b" cx="6.334" cy="6.334" r="6.334" transform="translate(49.426)"/><path class="d" d="M194.4,135.365s4.966-.727,7.434,3c1.98,3,1.052,7.367,1.052,7.367h5.348s.631-5.961-3.224-10.333c-4.21-4.774-10.61-4.258-10.61-4.258Z" transform="translate(-194.4 -110.298)"/></g><text class="e" transform="translate(11 60)"><tspan x="0" y="0">LMS</tspan></text></g></g></svg>