<svg id="Layer_1" data-name="Layer 1" xmlns="http://www.w3.org/2000/svg" viewBox="0 0 179.88 149.22"><title>Untitled-2</title><path d="M317.23,334.32c-18.08,0-33.26-1.4-47.7-7.25-13.6-5.52-16.63-11.32-12.37-25.2C261.8,286.76,272,277,287.34,272.81a7.08,7.08,0,0,1,6,.9c14.15,8.15,28.46,8.18,42.6,0a7.68,7.68,0,0,1,6.44-.86A42.7,42.7,0,0,1,374,310.51a12.36,12.36,0,0,1-5.63,11.95c-9.26,6.51-20,8.65-30.86,10.44A123,123,0,0,1,317.23,334.32Z" transform="translate(-194.13 -185.1)"/><path d="M282.85,235c.48-6.12,2.77-12.49,2.22-19.24-.2-2.52-.89-3.89-3.22-4.77-3.39-1.29-6.75-2.71-10-4.28-2.69-1.3-2.55-3,.08-4.16q19.6-8.49,39.28-16.79c3-1.26,6-.66,8.75.53,12.21,5.19,24.37,10.48,36.54,15.77,1.19.52,2.93,1,3,2.35,0,1.68-1.68,2.25-3.11,2.76-.62.23-1.21.55-1.82.81-10.82,4.72-12.1,7.43-9.38,19.15,3.41,14.68-1.13,27-12,36.92-11.21,10.23-25.62,10-37,0C287.64,256.49,283.43,246.86,282.85,235Z" transform="translate(-194.13 -185.1)"/><path d="M215.62,240.41c-.1-4.18,1.39-8.14,1.51-12.35.11-4-1.1-6.08-4.9-7.27-2.44-.77-6.52-1.36-6.54-3.65,0-2.95,4.18-3,6.61-4.1,7.56-3.44,15.24-6.61,22.83-10a11.86,11.86,0,0,1,10.1,0c5.61,2.49,11.28,4.87,16.9,7.35,5.25,2.33,6.05,7.86,2.37,12.16-2.84,3.32-1.55,7.59-.67,11.36,2.68,11.49-.78,21-9.07,28.91s-19.21,8.31-28.06,1.09A29.11,29.11,0,0,1,215.62,240.41Z" transform="translate(-194.13 -185.1)"/><path d="M269.46,273.38c-7.7,6-13.58,12.85-17.14,21.5a44.15,44.15,0,0,0-3.45,19.45c.13,2.18-.17,3.48-2.74,3.53-14.7.29-29.26-.43-42.93-6.6-8.81-4-10.27-7.16-8.3-16.45,2.13-10.08,8-17.38,16.94-22.2,4.78-2.56,9.17-3.59,14.83-.48a28,28,0,0,0,27.72-.29C260.14,268.64,264.29,270.47,269.46,273.38Z" transform="translate(-194.13 -185.1)"/><path d="M274.48,247.66c-4.3-8.94-.84-17.7-1-26.33,0-2.74,1.27-5.52-.7-8.13-.89-1.18,0-2.16.78-3.06s1.39-.57,2.06,0,1.65,1.44,1.15,2.52c-3,6.44-.3,12.95-.19,19.4C276.69,237.21,277.75,242.31,274.48,247.66Z" transform="translate(-194.13 -185.1)"/><path d="M209,249.8c-2.27-3.47-2.07-6.71-1.68-10,.63-5.38,1.43-10.77.13-16.17a1.91,1.91,0,0,1,.66-2.17,1.27,1.27,0,0,1,1.77,0,1.87,1.87,0,0,1,.62,2.18c-1.54,5.57-.36,11.13.22,16.67C211.06,243.48,211.07,246.49,209,249.8Z" transform="translate(-194.13 -185.1)"/></svg>